<svg xmlns="http://www.w3.org/2000/svg" xmlns:xlink="http://www.w3.org/1999/xlink" width="258.506" height="200.506" viewBox="0 0 258.506 200.506">
  <defs>
    <clipPath id="clip-path">
      <rect id="Rectangle_110" data-name="Rectangle 110" width="258.506" height="200.506" transform="translate(152.49 -84)" fill="#fff"/>
    </clipPath>
  </defs>
  <g id="Group_105" data-name="Group 105" transform="translate(-152.49 84)" clip-path="url(#clip-path)">
    <path id="Path_467" data-name="Path 467" d="M84.03,56.559V37.376a11.671,11.671,0,0,0-.6-3.7c-.007-.018-.011-.035-.018-.054-.045-.161-.1-.32-.15-.479-.007-.026-.018-.056-.026-.086-.033-.119-.068-.24-.11-.355a.051.051,0,0,0-.007-.023c-.046-.156-.093-.311-.145-.465a.01.01,0,0,0,0-.007c-.021-.07-.045-.144-.07-.213a.016.016,0,0,0,0-.012c-.019-.063-.04-.124-.065-.187v0c-.026-.087-.051-.175-.075-.26-.016-.059-.035-.115-.051-.173-.023-.075-.045-.149-.07-.224-.038-.129-.077-.257-.119-.385-.026-.082-.051-.163-.079-.243s-.06-.182-.089-.269a.02.02,0,0,1,0-.011c-.028-.1-.056-.194-.086-.29s-.058-.192-.089-.288c-.009-.03-.018-.06-.028-.087A42.019,42.019,0,0,0,0,42.015v74.491H142.4V56.559ZM79.874,30.622a0,0,0,0,1,0,0c.059.065.114.128.168.191s.115.136.171.208.117.145.175.22c0,0,0,0,0,0,.061.075.117.152.171.229v0c.061.084.121.168.178.254v0c.061.089.119.18.178.273v0c.067.1.128.207.191.313,0,0,0,0,.005.009.068.119.135.238.2.358a.044.044,0,0,1,0,.014,9.869,9.869,0,0,1,.869,2.324.116.116,0,0,1,.007.033,9.8,9.8,0,0,1,.24,1.577.019.019,0,0,1,0,.014c.016.238.024.479.024.722v19.19H62.179V37.376a10.135,10.135,0,0,1,17.7-6.754m-7.4-7.4a15.084,15.084,0,0,0-18.6,14.667V64.627H83.14l56.758-.009v4.707H81.531v.007H48.916V38.406A16.676,16.676,0,0,1,72.47,23.223m-6.887-3.263A18.447,18.447,0,0,0,47.138,38.406v32.7H83.089V71.1H139.9v4.606H80.849v0H42.284V38.922A19.946,19.946,0,0,1,69.585,20.4a18.507,18.507,0,0,0-4-.435m-3.368-2.854A21.814,21.814,0,0,0,40.4,38.922V77.6H83.036V77.59H139.9v4.5H80.169l.007,0H35.656V39.437A23.217,23.217,0,0,1,66.475,17.524a21.9,21.9,0,0,0-4.259-.416m-3.366-2.85a25.178,25.178,0,0,0-25.179,25.18V84.08h49.11v-.047h.051l.152,0h.946v-.091l.1.091v.046H139.9v4.4H81.076v.005H29.024V39.953A26.492,26.492,0,0,1,63.21,14.635a25.193,25.193,0,0,0-4.361-.378m-3.368-2.852A28.544,28.544,0,0,0,26.937,39.953V90.567h56v0H139.9v4.3H81.076v0H22.391V40.469A29.73,29.73,0,0,1,52.116,10.744a29.89,29.89,0,0,1,7.583.972,28.392,28.392,0,0,0-4.217-.311m-3.366-2.85A31.915,31.915,0,0,0,20.2,40.469V97.051H82.883v0H139.9v4.2H15.761V40.983A32.989,32.989,0,0,1,48.748,8a33.289,33.289,0,0,1,7.228.79,32.3,32.3,0,0,0-3.861-.231M48.748,5.7A35.281,35.281,0,0,0,13.467,40.983v62.553H82.832v0H139.9v4.09H80.849v0H9.129V41.5A36.254,36.254,0,0,1,45.382,5.245a36.67,36.67,0,0,1,6.7.614Q50.436,5.7,48.748,5.7M2.5,114.008V42.015A39.514,39.514,0,0,1,42.015,2.5a40.087,40.087,0,0,1,5.922.437q-1.267-.084-2.555-.084A38.646,38.646,0,0,0,6.734,41.5v68.522H139.9v3.987ZM139.9,62.941H81.986v.007H55.548V37.89a13.4,13.4,0,0,1,19.6-11.881A11.715,11.715,0,0,0,60.605,37.376V58.14H84.03v-.007H139.9Z" transform="translate(210.545 -84)" fill="#fff"/>
    <rect id="Rectangle_108" data-name="Rectangle 108" width="2.499" height="0.009" transform="translate(139.898 56.55)" fill="#fff"/>
    <path id="Path_468" data-name="Path 468" d="M460.719,174c7.3,0,13.208-.275,20.376-.275,9.151,0,15.688,5.4,15.688,11.722s-6.536,11.368-15.688,11.368c-6.221,0,.2,0-17.626,0v9.238h-2.75Zm20.421,20.469c7.3,0,12.893-3.938,12.893-9.021,0-4.717-5.094-9.2-12.893-9.2-6.266,0-11.585.229-17.671.275v17.95c17.831.06,11.405,0,17.671,0" transform="translate(-308.229 -116.227)" fill="#fff"/>
    <path id="Path_469" data-name="Path 469" d="M606.451,174.558h2.75v29.535h15.553l9.061-.275-.09,2.793H606.451Z" transform="translate(-405.726 -116.782)" fill="#fff"/>
    <path id="Path_470" data-name="Path 470" d="M724.943,174.558h31.105v2.472H727.694v12.364H756.11v2.381H727.694v12.364h28.355v2.472H724.943Z" transform="translate(-484.999 -116.782)" fill="#fff"/>
    <path id="Path_471" data-name="Path 471" d="M855.149,174c5.68,0,10.639-.275,16.68-.275,11.631,0,20.2,7.464,20.2,16.3s-8.565,16.3-20.2,16.3c-6.041,0-11.09-.275-16.68-.275Zm16.68,29.81c10.413,0,17.446-6.594,17.446-13.783s-7.032-13.783-17.446-13.783c-5.049,0-9.241.229-13.974.275v27.017c4.553.046,8.97.275,13.974.275" transform="translate(-572.109 -116.227)" fill="#fff"/>
    <path id="Path_472" data-name="Path 472" d="M1019.63,173.174a54.778,54.778,0,0,1,15.507,2.061v2.61c-5.545-1.923-13.434-2.152-15.282-2.152-10.91,0-17.041,5.541-17.041,13.967,0,8.379,6.807,13.966,17.626,13.966,5.68,0,8.7-.732,13.659-3.846V191.4h-13.659v-2.381h16.139v12.089c-5.86,3.938-9.287,5.037-16.139,5.037-12.442,0-20.376-6.686-20.376-16.485s7.122-16.485,19.565-16.485" transform="translate(-669.06 -115.856)" fill="#fff"/>
    <path id="Path_473" data-name="Path 473" d="M1147.429,174.558h31.105v2.472h-28.355v12.364h28.407v2.381h-28.407v12.364h28.355v2.472h-31.105Z" transform="translate(-767.649 -116.782)" fill="#fff"/>
    <path id="Path_474" data-name="Path 474" d="M461.629,315.419V320.3h5.544v.872h-5.544v5.579h-.91v-12.2h6.66v.871Z" transform="translate(-308.229 -210.438)" fill="#fff"/>
    <path id="Path_475" data-name="Path 475" d="M537.368,320.262a6.2,6.2,0,1,1,6.2,6.294,6.21,6.21,0,0,1-6.2-6.294m11.483,0a5.288,5.288,0,1,0-5.287,5.4,5.306,5.306,0,0,0,5.287-5.4" transform="translate(-359.508 -210.05)" fill="#fff"/>
    <path id="Path_476" data-name="Path 476" d="M632.845,322.672v-8.125h.91v8.125a3.495,3.495,0,0,0,6.986,0v-8.125h.91v8.125a4.4,4.4,0,0,1-8.805,0" transform="translate(-423.384 -210.437)" fill="#fff"/>
    <path id="Path_477" data-name="Path 477" d="M728.621,314.547v12.2h-.807l-7.089-10.5v10.5h-.91v-12.2h.789l7.106,10.5v-10.5Z" transform="translate(-481.569 -210.437)" fill="#fff"/>
    <path id="Path_478" data-name="Path 478" d="M817.483,320.649c0,3.365-2.352,6.1-5.664,6.1h-4.514v-12.2h4.514c3.313,0,5.664,2.737,5.664,6.1m-.892,0c0-2.894-1.94-5.23-4.772-5.23h-3.6V325.88h3.6c2.832,0,4.772-2.336,4.772-5.231" transform="translate(-540.1 -210.437)" fill="#fff"/>
    <path id="Path_479" data-name="Path 479" d="M899.992,323.649h-6.024l-1.167,3.1h-.961l4.668-12.2h.961l4.651,12.2h-.961Zm-.326-.872-2.678-7.1-2.677,7.1Z" transform="translate(-596.655 -210.438)" fill="#fff"/>
    <path id="Path_480" data-name="Path 480" d="M982.622,315.419h-3.776v11.333h-.927V315.419h-3.776v-.871h8.479Z" transform="translate(-651.718 -210.438)" fill="#fff"/>
    <rect id="Rectangle_109" data-name="Rectangle 109" width="0.91" height="12.204" transform="translate(349.958 104.11)" fill="#fff"/>
    <path id="Path_481" data-name="Path 481" d="M1118.887,320.262a6.2,6.2,0,1,1,6.2,6.294,6.21,6.21,0,0,1-6.2-6.294m11.483,0a5.288,5.288,0,1,0-5.287,5.4,5.306,5.306,0,0,0,5.287-5.4" transform="translate(-748.554 -210.05)" fill="#fff"/>
    <path id="Path_482" data-name="Path 482" d="M1223.946,314.547v12.2h-.807l-7.089-10.5v10.5h-.91v-12.2h.79l7.106,10.5v-10.5Z" transform="translate(-812.949 -210.437)" fill="#fff"/>
  </g>
</svg>
