<svg xmlns="http://www.w3.org/2000/svg" width="148.09" height="121.165" viewBox="0 0 148.09 121.165">
  <path id="Path_488" data-name="Path 488" d="M87.39,58.82V38.87a12.138,12.138,0,0,0-.622-3.851c-.007-.018-.011-.036-.018-.056-.047-.167-.1-.333-.156-.5-.007-.027-.018-.058-.027-.089-.035-.124-.071-.249-.115-.369a.053.053,0,0,0-.007-.024c-.048-.162-.1-.324-.151-.484a.011.011,0,0,0,0-.007c-.022-.073-.047-.149-.073-.222a.017.017,0,0,0,0-.013c-.02-.065-.042-.129-.067-.194v0c-.028-.091-.053-.182-.078-.271-.016-.062-.036-.12-.053-.18-.023-.078-.047-.155-.073-.233-.04-.135-.08-.267-.124-.4-.028-.086-.053-.169-.082-.253s-.062-.189-.093-.28a.021.021,0,0,1,0-.011c-.029-.1-.058-.2-.089-.3s-.06-.2-.093-.3c-.009-.031-.018-.062-.029-.091A43.7,43.7,0,0,0,0,43.695v77.47H148.09V58.82ZM83.067,31.846a0,0,0,0,1,0,0c.062.067.118.133.175.2s.12.142.178.217.122.151.182.229c0,0,0,0,0,0,.064.078.122.158.178.238v0c.064.087.126.175.186.264v0c.064.093.124.187.186.284v0c.069.106.133.215.2.326,0,0,0,0,.006.009.071.124.14.247.206.372a.046.046,0,0,1,0,.015,10.264,10.264,0,0,1,.9,2.417.12.12,0,0,1,.007.034,10.188,10.188,0,0,1,.249,1.64.02.02,0,0,1,0,.014c.017.247.025.5.025.751V58.827H64.665V38.87a10.54,10.54,0,0,1,18.4-7.024m-7.7-7.694A15.687,15.687,0,0,0,56.026,39.4V67.211H86.464l59.027-.009v4.9h-60.7V72.1H50.872V39.941a17.343,17.343,0,0,1,24.5-15.789m-7.162-3.393A19.185,19.185,0,0,0,49.023,39.941V73.953H86.411v-.007h59.08v4.79H84.082v.005H43.975V40.478A20.743,20.743,0,0,1,72.368,21.212a19.247,19.247,0,0,0-4.162-.453m-3.5-2.968A22.686,22.686,0,0,0,42.02,40.478V80.7H86.357v-.007h59.135v4.681H83.374l.008.005h-46.3V41.014a24.145,24.145,0,0,1,32.051-22.79,22.776,22.776,0,0,0-4.43-.433m-3.5-2.964A26.185,26.185,0,0,0,35.017,41.014V87.442H86.091v-.049h.053l.158,0h.984v-.094l.1.094v.048h58.1v4.575H84.318v.006H30.184V41.551A27.552,27.552,0,0,1,65.738,15.22a26.2,26.2,0,0,0-4.535-.393m-3.5-2.966A29.686,29.686,0,0,0,28.014,41.551V94.188H86.251v-.005h59.24v4.468H84.318v0H23.287V42.087A30.919,30.919,0,0,1,54.2,11.174a31.085,31.085,0,0,1,7.886,1.011,29.527,29.527,0,0,0-4.386-.324M54.2,8.9a33.191,33.191,0,0,0-33.192,33.19v58.844H86.2v0h59.295v4.364H16.391V42.622A34.308,34.308,0,0,1,50.7,8.316a34.62,34.62,0,0,1,7.517.822A33.592,33.592,0,0,0,54.2,8.9M50.7,5.93A36.692,36.692,0,0,0,14.006,42.622v65.054H86.144v0h59.348v4.253H84.082v0H9.494V43.158a37.7,37.7,0,0,1,37.7-37.7,38.136,38.136,0,0,1,6.963.638Q52.452,5.93,50.7,5.93M2.6,118.566V43.695a41.094,41.094,0,0,1,41.1-41.1,41.689,41.689,0,0,1,6.159.455q-1.317-.087-2.657-.087A40.191,40.191,0,0,0,7,43.158V114.42H145.491v4.146ZM145.491,65.457H85.264v.007H57.769V39.4A13.941,13.941,0,0,1,78.157,27.049,12.183,12.183,0,0,0,63.028,38.87V60.464H87.39v-.008h58.1Z" fill="#c28f50"/>
</svg>
