<svg id="Group_121" data-name="Group 121" xmlns="http://www.w3.org/2000/svg" xmlns:xlink="http://www.w3.org/1999/xlink" width="609.488" height="172.773" viewBox="0 0 609.488 172.773">
  <defs>
    <clipPath id="clip-path">
      <rect id="Rectangle_110" data-name="Rectangle 110" width="609.488" height="172.773" fill="none"/>
    </clipPath>
  </defs>
  <g id="Group_105" data-name="Group 105" clip-path="url(#clip-path)">
    <path id="Path_467" data-name="Path 467" d="M124.612,83.874V55.427a17.307,17.307,0,0,0-.887-5.492c-.01-.026-.016-.052-.026-.08-.067-.239-.142-.474-.223-.71-.01-.039-.026-.083-.039-.127-.05-.176-.1-.355-.163-.526a.076.076,0,0,0-.01-.034c-.068-.231-.137-.461-.215-.69a.015.015,0,0,0,0-.01c-.031-.1-.067-.213-.1-.317a.024.024,0,0,0-.005-.018c-.028-.093-.059-.184-.1-.277v-.005c-.039-.13-.076-.259-.112-.386-.023-.088-.052-.171-.075-.257-.033-.111-.067-.22-.1-.332-.057-.192-.114-.381-.176-.57-.039-.122-.076-.241-.117-.36-.044-.135-.088-.27-.132-.4a.03.03,0,0,1,0-.016c-.041-.142-.083-.288-.127-.43s-.085-.285-.132-.428c-.013-.044-.026-.088-.042-.13A62.312,62.312,0,0,0,0,62.306V172.773H211.167v-88.9ZM118.449,45.41a0,0,0,0,1,0,0c.088.1.168.189.249.283s.171.2.254.309.174.215.26.326c0,0,0,0,0,.005.091.111.174.226.254.34v.005c.091.124.179.249.265.376v0c.091.132.176.267.265.4v0c.1.151.189.306.283.464,0,0,0,.005.008.013.1.176.2.352.293.531a.066.066,0,0,1,0,.021,14.636,14.636,0,0,1,1.289,3.446.172.172,0,0,1,.01.049,14.527,14.527,0,0,1,.355,2.339.029.029,0,0,1,0,.021c.024.353.036.711.036,1.071V83.884H92.208V55.427A15.029,15.029,0,0,1,118.449,45.41M107.47,34.439a22.369,22.369,0,0,0-27.581,21.75V95.838h43.4l84.169-.013v6.98H120.907v.01H72.541V56.954A24.729,24.729,0,0,1,107.47,34.439M97.256,29.6A27.356,27.356,0,0,0,69.9,56.954v48.5h53.314v-.01h84.244v6.83H119.9v.007H62.705V57.719a29.579,29.579,0,0,1,40.486-27.472,27.445,27.445,0,0,0-5.935-.645m-4.994-4.232a32.349,32.349,0,0,0-32.344,32.35v57.353h63.221v-.01h84.322v6.674H118.886l.011.007H52.875V58.484a34.43,34.43,0,0,1,45.7-32.5,32.477,32.477,0,0,0-6.317-.617m-4.991-4.227A37.338,37.338,0,0,0,49.932,58.484v66.2H122.76v-.07h.075l.226-.005h1.4v-.134l.148.134v.068h82.849V131.2H120.232v.008H43.041V59.249A39.287,39.287,0,0,1,93.738,21.7a37.36,37.36,0,0,0-6.467-.561m-4.994-4.229a42.33,42.33,0,0,0-42.33,42.335v75.058h83.042V134.3h84.473v6.371H120.232v.005H33.205V60.014a44.088,44.088,0,0,1,44.08-44.08,44.325,44.325,0,0,1,11.245,1.442,42.1,42.1,0,0,0-6.254-.462m-4.991-4.227A47.328,47.328,0,0,0,29.956,60.014v83.908h92.954v-.005h84.551v6.223H23.373V60.776A48.921,48.921,0,0,1,72.291,11.858,49.365,49.365,0,0,1,83.01,13.03a47.9,47.9,0,0,0-5.725-.343M72.291,8.456a52.32,52.32,0,0,0-52.32,52.32v92.763H122.836v0h84.626V159.6H119.9v0H13.538V61.541A53.763,53.763,0,0,1,67.3,7.779a54.38,54.38,0,0,1,9.929.91q-2.435-.233-4.937-.233M3.7,169.068V62.306a58.6,58.6,0,0,1,58.6-58.6,59.446,59.446,0,0,1,8.782.648Q69.21,4.229,67.3,4.229A57.31,57.31,0,0,0,9.985,61.541V163.155H207.461v5.912ZM207.461,93.338H121.581v.01H82.375V56.189A19.879,19.879,0,0,1,111.447,38.57,17.372,17.372,0,0,0,89.874,55.427V86.218h34.738v-.011h82.849Z" fill="#c28f50"/>
    <rect id="Rectangle_108" data-name="Rectangle 108" width="3.705" height="0.013" transform="translate(207.461 83.861)" fill="#c28f50"/>
    <path id="Path_468" data-name="Path 468" d="M460.719,174.135c10.83,0,19.587-.407,30.217-.407,13.571,0,23.264,8.013,23.264,17.384s-9.693,16.859-23.264,16.859c-9.225,0,.3,0-26.138,0v13.7h-4.078ZM491,204.489c10.83,0,19.119-5.84,19.119-13.378,0-6.994-7.554-13.649-19.119-13.649-9.292,0-17.181.34-26.205.407v26.619c26.442.089,16.913,0,26.205,0" transform="translate(-234.583 -88.457)" fill="#303030"/>
    <path id="Path_469" data-name="Path 469" d="M606.451,174.558h4.078v43.8h23.064l13.437-.408-.133,4.142H606.451Z" transform="translate(-308.786 -88.879)" fill="#303030"/>
    <path id="Path_470" data-name="Path 470" d="M724.943,174.558h46.127v3.667H729.022V196.56h42.14v3.531h-42.14v18.335h42.049v3.667H724.943Z" transform="translate(-369.118 -88.879)" fill="#303030"/>
    <path id="Path_471" data-name="Path 471" d="M855.149,174.135c8.424,0,15.777-.407,24.735-.407,17.248,0,29.949,11.068,29.949,24.174s-12.7,24.174-29.949,24.174c-8.958,0-16.445-.408-24.735-.408Zm24.735,44.207c15.442,0,25.871-9.779,25.871-20.44s-10.429-20.44-25.871-20.44c-7.488,0-13.7.34-20.723.408v40.065c6.752.068,13.3.407,20.723.407" transform="translate(-435.415 -88.457)" fill="#303030"/>
    <path id="Path_472" data-name="Path 472" d="M1029.079,173.174c10.629,0,19.654,1.9,23,3.056V180.1c-8.222-2.852-19.922-3.192-22.662-3.192-16.178,0-25.27,8.217-25.27,20.712,0,12.426,10.095,20.711,26.139,20.711,8.423,0,12.9-1.086,20.256-5.7V200.2h-20.256v-3.532h23.933V214.6c-8.691,5.84-13.772,7.47-23.933,7.47-18.451,0-30.216-9.914-30.216-24.446s10.562-24.446,29.014-24.446" transform="translate(-509.201 -88.175)" fill="#303030"/>
    <path id="Path_473" data-name="Path 473" d="M1147.429,174.558h46.127v3.667h-42.049V196.56h42.126v3.531h-42.126v18.335h42.049v3.667h-46.127Z" transform="translate(-584.235 -88.879)" fill="#303030"/>
    <path id="Path_474" data-name="Path 474" d="M462.068,315.84v7.24h8.221v1.292h-8.221v8.274h-1.349v-18.1H470.6v1.292Z" transform="translate(-234.583 -160.158)" fill="#033127"/>
    <path id="Path_475" data-name="Path 475" d="M537.368,323.3a9.19,9.19,0,1,1,9.189,9.334,9.21,9.21,0,0,1-9.189-9.334m17.029,0a7.842,7.842,0,1,0-7.84,8.015,7.869,7.869,0,0,0,7.84-8.015" transform="translate(-273.611 -159.862)" fill="#033127"/>
    <path id="Path_476" data-name="Path 476" d="M632.845,326.6V314.547h1.349V326.6c0,2.947,1.807,5.016,5.168,5.016,3.385,0,5.192-2.069,5.192-5.016V314.547H645.9V326.6c0,3.826-2.622,6.335-6.541,6.335s-6.516-2.508-6.516-6.335" transform="translate(-322.224 -160.157)" fill="#033127"/>
    <path id="Path_477" data-name="Path 477" d="M732.874,314.547v18.1h-1.2L721.165,317.08v15.565h-1.349v-18.1h1.17l10.538,15.565V314.547Z" transform="translate(-366.507 -160.157)" fill="#033127"/>
    <path id="Path_478" data-name="Path 478" d="M822.4,323.6c0,4.99-3.487,9.049-8.4,9.049h-6.694v-18.1H814c4.913,0,8.4,4.059,8.4,9.049m-1.323,0c0-4.292-2.877-7.757-7.077-7.757h-5.345v15.513H814c4.2,0,7.077-3.465,7.077-7.757" transform="translate(-411.054 -160.157)" fill="#033127"/>
    <path id="Path_479" data-name="Path 479" d="M903.929,328.044H895l-1.731,4.6h-1.425l6.923-18.1h1.426l6.9,18.1H905.66Zm-.483-1.293-3.971-10.522-3.97,10.522Z" transform="translate(-454.096 -160.158)" fill="#033127"/>
    <path id="Path_480" data-name="Path 480" d="M986.717,315.84h-5.6v16.806h-1.374V315.84h-5.6v-1.292h12.575Z" transform="translate(-496.003 -160.158)" fill="#033127"/>
    <rect id="Rectangle_109" data-name="Rectangle 109" width="1.349" height="18.098" transform="translate(518.97 154.39)" fill="#033127"/>
    <path id="Path_481" data-name="Path 481" d="M1118.887,323.3a9.19,9.19,0,1,1,9.189,9.334,9.209,9.209,0,0,1-9.189-9.334m17.029,0a7.842,7.842,0,1,0-7.84,8.015,7.869,7.869,0,0,0,7.84-8.015" transform="translate(-569.702 -159.862)" fill="#033127"/>
    <path id="Path_482" data-name="Path 482" d="M1228.2,314.547v18.1H1227l-10.512-15.565v15.565h-1.349v-18.1h1.171l10.538,15.565V314.547Z" transform="translate(-618.711 -160.157)" fill="#033127"/>
  </g>
</svg>
