<svg xmlns="http://www.w3.org/2000/svg" width="69.366" height="44.604" viewBox="0 0 69.366 44.604">
  <path id="Path_487" data-name="Path 487" d="M81.652,21.09,85.224,4.344H62.6L58.16,25.217H70.62A17.729,17.729,0,0,1,68,31.963q-4.127,6.191-12.778,8.73l-1.746,8.254Q64.827,46.8,71.97,39.9T81.652,21.09ZM34.191,39.979q7.3-6.826,9.841-18.889L47.6,4.344H24.985L20.54,25.217H33A15.3,15.3,0,0,1,30.3,31.8q-4.127,6.429-12.7,8.889l-1.746,8.254A36.327,36.327,0,0,0,34.191,39.979Z" transform="translate(-15.857 -4.344)" fill="#c28f50"/>
</svg>
